<svg width="45" height="48" viewBox="0 0 45 48" fill="none" xmlns="http://www.w3.org/2000/svg">
<path d="M22.5 47.118C34.9264 47.118 45 36.7429 45 23.9445C45 11.1462 34.9264 0.771118 22.5 0.771118C10.0736 0.771118 0 11.1462 0 23.9445C0 36.7429 10.0736 47.118 22.5 47.118Z" fill="white"/>
<path d="M22.5001 11.9836C26.2834 11.9836 26.7301 11.9974 28.2234 12.0695C29.6034 12.1347 30.3534 12.3716 30.8534 12.5707C31.5134 12.835 31.9867 13.1509 32.4834 13.6624C32.9801 14.174 33.2867 14.658 33.5434 15.3412C33.7367 15.8562 33.9667 16.6286 34.0301 18.0499C34.0967 19.5879 34.1134 20.0514 34.1134 23.9446C34.1134 27.8377 34.1001 28.3012 34.0301 29.8392C33.9667 31.2605 33.7367 32.0329 33.5434 32.5479C33.2867 33.2276 32.9801 33.7151 32.4834 34.2267C31.9867 34.7382 31.5167 35.0541 30.8534 35.3184C30.3534 35.5175 29.6034 35.7544 28.2234 35.8196C26.7301 35.8883 26.2834 35.9055 22.5001 35.9055C18.7167 35.9055 18.2701 35.8917 16.7767 35.8196C15.3967 35.7544 14.6467 35.5175 14.1467 35.3184C13.4867 35.0541 13.0134 34.7382 12.5167 34.2267C12.0201 33.7151 11.7134 33.2311 11.4567 32.5479C11.2634 32.0329 11.0334 31.2605 10.9701 29.8392C10.9034 28.3012 10.8867 27.8377 10.8867 23.9446C10.8867 20.0514 10.9001 19.5879 10.9701 18.0499C11.0334 16.6286 11.2634 15.8562 11.4567 15.3412C11.7134 14.6615 12.0201 14.174 12.5167 13.6624C13.0134 13.1509 13.4834 12.835 14.1467 12.5707C14.6467 12.3716 15.3967 12.1347 16.7767 12.0695C18.2701 12.0008 18.7201 11.9836 22.5001 11.9836ZM22.5001 9.35388C18.6534 9.35388 18.1701 9.37105 16.6601 9.44314C15.1534 9.51524 14.1234 9.75899 13.2201 10.1229C12.2901 10.4971 11.5001 10.9949 10.7101 11.8051C9.92341 12.6153 9.43674 13.429 9.07674 14.3902C8.72674 15.3172 8.48674 16.378 8.41674 17.9332C8.34674 19.4884 8.33008 19.9862 8.33008 23.948C8.33008 27.9098 8.34674 28.4076 8.41674 29.9628C8.48674 31.5145 8.72341 32.5754 9.07674 33.5057C9.44008 34.4636 9.92341 35.2772 10.7101 36.0909C11.4967 36.9011 12.2867 37.4023 13.2201 37.7731C14.1201 38.1335 15.1501 38.3807 16.6601 38.4528C18.1701 38.5249 18.6534 38.5421 22.5001 38.5421C26.3467 38.5421 26.8301 38.5249 28.3401 38.4528C29.8467 38.3807 30.8767 38.137 31.7801 37.7731C32.7101 37.3989 33.5001 36.9011 34.2901 36.0909C35.0767 35.2806 35.5634 34.467 35.9234 33.5057C36.2734 32.5788 36.5134 31.518 36.5834 29.9628C36.6534 28.4076 36.6701 27.9098 36.6701 23.948C36.6701 19.9862 36.6534 19.4884 36.5834 17.9332C36.5134 16.3814 36.2767 15.3206 35.9234 14.3902C35.5601 13.4324 35.0767 12.6188 34.2901 11.8051C33.5034 10.9949 32.7134 10.4937 31.7801 10.1229C30.8801 9.76242 29.8501 9.51524 28.3401 9.44314C26.8301 9.37105 26.3467 9.35388 22.5001 9.35388Z" fill="#010201"/>
<path d="M22.5001 16.4535C18.4835 16.4535 15.2268 19.8076 15.2268 23.9445C15.2268 28.0814 18.4835 31.4355 22.5001 31.4355C26.5168 31.4355 29.7735 28.0814 29.7735 23.9445C29.7735 19.8076 26.5168 16.4535 22.5001 16.4535ZM22.5001 28.8092C19.8935 28.8092 17.7768 26.6326 17.7768 23.9445C17.7768 21.2564 19.8901 19.0798 22.5001 19.0798C25.1101 19.0798 27.2235 21.2564 27.2235 23.9445C27.2235 26.6326 25.1101 28.8092 22.5001 28.8092Z" fill="#010201"/>
<path d="M30.0633 17.9057C31.0022 17.9057 31.7633 17.1218 31.7633 16.1548C31.7633 15.1878 31.0022 14.4039 30.0633 14.4039C29.1244 14.4039 28.3633 15.1878 28.3633 16.1548C28.3633 17.1218 29.1244 17.9057 30.0633 17.9057Z" fill="#010201"/>
</svg>
