<svg width="46" height="48" viewBox="0 0 46 48" fill="none" xmlns="http://www.w3.org/2000/svg">
<path d="M23.1035 47.118C35.5299 47.118 45.6035 36.7429 45.6035 23.9445C45.6035 11.1462 35.5299 0.771118 23.1035 0.771118C10.6771 0.771118 0.603516 11.1462 0.603516 23.9445C0.603516 36.7429 10.6771 47.118 23.1035 47.118Z" fill="white"/>
<path d="M24.8337 20.7758C25.2003 20.3467 25.5037 19.9107 25.8803 19.5399C27.0403 18.4001 28.417 17.8199 30.027 17.8234C30.9137 17.8234 31.787 17.8852 32.6437 18.1358C34.6003 18.7057 35.7437 20.0824 36.297 22.0427C36.7104 23.512 36.797 25.026 36.807 26.5434C36.8304 29.7431 36.837 32.9462 36.8637 36.1458C36.8637 36.4445 36.7837 36.5235 36.497 36.5235C34.897 36.5235 33.2937 36.5303 31.6937 36.5544C31.4103 36.5578 31.3503 36.4685 31.3503 36.1939C31.3403 33.1487 31.3237 30.1036 31.297 27.055C31.2903 26.2928 31.237 25.5307 31.027 24.7891C30.637 23.4262 29.6803 22.7327 28.2903 22.8185C26.3937 22.9353 25.4103 23.9103 25.1803 25.898C25.127 26.3718 25.1003 26.849 25.1037 27.3262C25.1237 30.289 25.137 33.2517 25.1637 36.2145C25.1637 36.5097 25.0937 36.599 24.8037 36.5956C23.1903 36.5921 21.577 36.6024 19.9637 36.6265C19.7037 36.6299 19.6303 36.5578 19.6303 36.29C19.6003 30.4263 19.567 24.5591 19.5237 18.6954C19.5237 18.4036 19.6137 18.3383 19.8803 18.3383C21.4103 18.3383 22.9437 18.3315 24.4737 18.3074C24.757 18.304 24.8303 18.3967 24.8237 18.6714C24.8137 19.3717 24.8237 20.0721 24.8303 20.7758H24.8337Z" fill="#010201"/>
<path d="M16.1002 27.5322C16.1168 30.4332 16.1302 33.3341 16.1602 36.2351C16.1602 36.5578 16.0868 36.6539 15.7635 36.6539C14.1635 36.6471 12.5635 36.6608 10.9602 36.6814C10.7035 36.6848 10.6268 36.6196 10.6235 36.345C10.5968 30.4709 10.5602 24.5969 10.5168 18.7229C10.5168 18.4791 10.5702 18.3933 10.8235 18.3933C12.4468 18.3933 14.0702 18.3864 15.6935 18.359C16.0068 18.3555 16.0502 18.4791 16.0502 18.7538C16.0602 21.6788 16.0802 24.6038 16.0968 27.5288L16.1002 27.5322Z" fill="#010201"/>
<path d="M16.4503 12.5364C16.4636 14.3594 15.0369 15.8528 13.2703 15.8631C11.5269 15.8734 10.0703 14.4006 10.0536 12.605C10.0369 10.7924 11.4736 9.28867 13.2369 9.27837C14.9869 9.26807 16.4369 10.7374 16.4469 12.533L16.4503 12.5364Z" fill="#010201"/>
</svg>
