<svg width="46" height="48" viewBox="0 0 46 48" fill="none" xmlns="http://www.w3.org/2000/svg">
<path d="M22.71 47.118C35.1364 47.118 45.21 36.7429 45.21 23.9445C45.21 11.1462 35.1364 0.771118 22.71 0.771118C10.2836 0.771118 0.209961 11.1462 0.209961 23.9445C0.209961 36.7429 10.2836 47.118 22.71 47.118Z" fill="white"/>
<path d="M18.1633 37.2924C29.1533 37.2924 35.1633 27.9166 35.1633 19.7836C35.1633 19.5158 35.1567 19.2514 35.1467 18.9871C36.3133 18.1185 37.3267 17.0336 38.1267 15.8012C37.0567 16.2921 35.9033 16.6217 34.6967 16.7693C35.93 16.0071 36.8767 14.8021 37.3233 13.3671C36.17 14.0709 34.89 14.5858 33.53 14.8605C32.44 13.6658 30.8867 12.9174 29.17 12.9174C25.87 12.9174 23.1933 15.6741 23.1933 19.0695C23.1933 19.5535 23.2467 20.0204 23.35 20.4736C18.3833 20.2161 13.98 17.7683 11.0367 14.0434C10.5233 14.9532 10.2267 16.0106 10.2267 17.1366C10.2267 19.272 11.28 21.1568 12.8867 22.2588C11.9067 22.2279 10.9867 21.9498 10.18 21.4898C10.18 21.5138 10.18 21.5413 10.18 21.5688C10.18 24.5487 12.24 27.0377 14.9733 27.6007C14.47 27.7415 13.9433 27.817 13.4 27.817C13.0167 27.817 12.64 27.7792 12.2767 27.7071C13.0367 30.1515 15.2433 31.9299 17.8567 31.9814C15.81 33.6327 13.2367 34.6145 10.4367 34.6145C9.95334 34.6145 9.48001 34.5871 9.01001 34.5287C11.6533 36.2727 14.7933 37.2924 18.1667 37.2924" fill="#010201"/>
</svg>
