<svg width="216" height="74" viewBox="0 0 216 74" fill="none" xmlns="http://www.w3.org/2000/svg">
<path d="M84.8815 26.5913H76.585V20.6387H84.8815V17.0275C84.8815 5.18572 92.7972 0.0559082 101.348 0.0559082C109.327 0.0559082 116.295 4.80484 116.547 13.3553H107.11C106.856 8.28901 103.372 5.75462 99.0038 5.75462C93.874 5.75462 91.4666 9.11183 91.4666 12.8475C91.4666 16.7736 94.6968 20.6362 101.345 20.6362H108.883V26.5889H93.9985V58.6374H84.8791V26.5913H84.8815Z" fill="#000000"/>
<path d="M106.331 39.7663C106.331 29.9486 113.36 20.0063 126.914 20.0063C140.467 20.0063 147.118 29.7606 147.118 39.5758C147.118 49.3911 140.089 59.3358 126.535 59.3358C112.982 59.3358 106.331 49.5205 106.331 39.7663ZM127.168 52.3064C134.134 52.3064 137.808 46.7322 137.808 40.1472C137.808 33.5622 133.819 27.0382 126.281 27.0382C119.316 27.0382 115.641 32.6124 115.641 39.1339C115.641 46.0998 119.63 52.3064 127.168 52.3064Z" fill="#000000"/>
<path d="M149.496 39.7663C149.496 29.9486 156.526 20.0063 170.079 20.0063C183.632 20.0063 190.283 29.7606 190.283 39.5758C190.283 49.3911 183.254 59.3358 169.701 59.3358C156.147 59.3358 149.496 49.5205 149.496 39.7663ZM170.333 52.3064C177.299 52.3064 180.974 46.7322 180.974 40.1472C180.974 33.5622 176.984 27.0382 169.447 27.0382C162.481 27.0382 158.806 32.6124 158.806 39.1339C158.806 46.0998 162.796 52.3064 170.333 52.3064Z" fill="#000000"/>
<path d="M205.109 20.6387H214.228V58.6374H205.109V20.6387Z" fill="#000000"/>
<path d="M201.793 60.161V20.6387H192.673V61.9678H195.071V63.0885C190.395 63.2643 188.056 65.6961 188.056 68.7432C188.056 72.3226 191.155 74 194.605 74C198.228 74 201.795 71.7464 201.795 67.1073V60.161H201.793Z" fill="#000000"/>
<path d="M197.237 18.4974C200.242 18.4974 202.677 16.0618 202.677 13.0575C202.677 10.0531 200.242 7.61755 197.237 7.61755C194.233 7.61755 191.797 10.0531 191.797 13.0575C191.797 16.0618 194.233 18.4974 197.237 18.4974Z" fill="#000000"/>
<path d="M209.672 18.4974C212.676 18.4974 215.112 16.0618 215.112 13.0575C215.112 10.0531 212.676 7.61755 209.672 7.61755C206.668 7.61755 204.232 10.0531 204.232 13.0575C204.232 16.0618 206.668 18.4974 209.672 18.4974Z" fill="#000000"/>
<path d="M59.5865 6.08422L55.8313 17.5256C57.3109 17.8088 58.7588 18.302 60.1261 19.0052L65.3365 3.12743C65.6051 2.30705 65.3853 1.40366 64.7676 0.798137C64.1499 0.192619 63.2416 -0.0100348 62.4261 0.275633L46.6606 5.80099C47.3907 7.15364 47.9156 8.59175 48.2282 10.064L59.5841 6.08422H59.5865Z" fill="#000000"/>
<path d="M45.1957 64.4754L49.803 50.4605C48.5773 50.6412 47.3174 50.7828 46.0258 50.8829C45.6523 50.9049 45.264 50.922 44.8661 50.9342L43.5793 54.853C43.2815 52.9217 43.0178 50.7413 42.8591 48.4194C47.8448 48.2777 53.1236 47.5404 57.9653 45.6994C58.0483 45.6725 58.1313 45.6432 58.2119 45.6066C59.7745 44.9181 61.1784 43.9439 62.3822 42.7158C67.573 37.4199 67.4876 28.8914 62.1917 23.7005C56.8959 18.5097 48.3673 18.5951 43.1765 23.891C42.0143 25.0751 41.0962 26.44 40.4419 27.9514C40.3979 28.0393 40.3588 28.1296 40.3247 28.2224C38.9305 32.0655 38.2371 36.1747 37.9783 40.1911C37.8245 42.9257 37.8123 45.6628 37.9905 48.3827C37.9905 48.3827 37.9929 48.3827 37.9954 48.3827C38.0076 48.5707 38.0198 48.7563 38.0344 48.9419C38.0515 49.1665 38.0662 49.3936 38.0857 49.6182C38.0857 49.6328 38.0857 49.6475 38.0882 49.6597C38.1272 50.1212 38.159 50.5924 38.2127 51.0514C38.9305 58.3762 40.5005 63.8528 40.625 64.2825C40.9985 65.5619 42.339 66.2944 43.6184 65.9232C44.368 65.7035 44.9344 65.1541 45.1981 64.4802L45.1957 64.4754ZM42.7028 43.5776C42.7321 39.0558 43.2839 34.3069 44.8123 30.017C44.8172 30.0048 44.8221 29.9925 44.827 29.9803C45.2494 28.972 45.8549 28.0612 46.6265 27.2726C49.9519 23.8788 55.4187 23.825 58.8125 27.1505C62.2064 30.476 62.2601 35.9427 58.9346 39.3366C58.1924 40.0935 57.3329 40.7014 56.3807 41.1385C56.3758 41.1385 56.3709 41.1409 56.366 41.1434C52.0664 42.7988 47.2735 43.458 42.7028 43.5801V43.5776Z" fill="#000000"/>
<path d="M25.9533 28.3664C29.9038 28.0319 33.9349 27.2676 37.6999 25.8369C37.7829 25.81 37.8659 25.7807 37.9489 25.7441C39.5116 25.0555 40.9155 24.0813 42.1192 22.8532C47.3101 17.5574 47.2246 9.02883 41.9288 3.83797C36.6329 -1.35289 28.1044 -1.26743 22.9135 4.02842C21.7513 5.21504 20.8308 6.5799 20.1765 8.09125C20.1325 8.17671 20.0935 8.26705 20.0593 8.35983C18.2769 13.2748 17.6348 18.6219 17.5908 23.6565C15.2615 23.5442 13.0738 23.322 11.1328 23.0632L15.0174 21.7008C15.0589 20.6484 15.1199 19.6791 15.1883 18.8197C15.2493 18.1189 15.325 17.428 15.4105 16.7492L1.4933 21.63C0.824296 21.9059 0.287143 22.4919 0.0844892 23.2463C-0.152347 24.1204 0.123555 25.0116 0.726632 25.6025C1.0123 25.8832 1.37122 26.0957 1.78385 26.2055C2.21601 26.3227 7.72184 27.7828 15.0589 28.3541L15.0711 28.3395C15.7889 28.4054 16.5092 28.4543 17.2319 28.4933C17.3979 28.5006 17.5664 28.5104 17.7349 28.5177C17.7349 28.5177 17.7349 28.5177 17.7349 28.5202C20.4695 28.6423 23.2163 28.5763 25.9582 28.3664H25.9533ZM22.4374 23.7151C22.4667 19.1932 23.0185 14.4443 24.5494 10.1495C24.5543 10.1373 24.5592 10.1276 24.564 10.1153C24.984 9.10696 25.5895 8.19624 26.3635 7.4076C29.689 4.01377 35.1557 3.96005 38.5496 7.28552C41.9434 10.611 41.9971 16.0777 38.6717 19.4716C37.9294 20.2285 37.07 20.834 36.1153 21.271C36.1104 21.271 36.1055 21.2735 36.1006 21.2759C31.801 22.9313 27.0081 23.5906 22.4374 23.7127V23.7151Z" fill="#000000"/>
<path d="M35.4758 43.3627C30.6268 42.9696 26.6274 42.1761 24.6497 41.7293C24.1638 39.7613 23.2922 35.7766 22.8014 30.9374C21.1289 30.9935 19.5101 30.9862 17.9231 30.9227C18.6287 38.3794 20.2353 43.9829 20.3623 44.4175C20.5991 45.2257 21.2364 45.8507 22.047 46.0705C22.484 46.1901 28.1168 47.6844 35.5881 48.2411C35.4929 46.6564 35.4538 45.0377 35.4758 43.3652V43.3627Z" fill="#000000"/>
</svg>
