<svg width="145" height="145" viewBox="0 0 145 145" fill="none" xmlns="http://www.w3.org/2000/svg">
<path d="M130.446 13.324L122.215 38.392C125.476 39.0334 128.629 40.1024 131.622 41.6525L143.007 6.91005C143.595 5.09275 143.114 3.11511 141.778 1.83231C140.442 0.49606 138.464 0.0684612 136.647 0.70986L102.118 12.7895C103.721 15.7293 104.844 18.8828 105.539 22.1433L130.446 13.324Z" fill="#06C472"/>
<path d="M98.9647 141.176L109.067 110.496C106.394 110.87 103.615 111.191 100.782 111.405C99.9802 111.458 99.125 111.511 98.2698 111.511L95.437 120.063C94.7956 115.841 94.2076 111.084 93.8335 105.953C104.737 105.632 116.282 104.028 126.919 100.02C127.079 99.9663 127.293 99.9128 127.453 99.8059C130.874 98.3093 133.974 96.1713 136.593 93.4989C147.978 81.9002 147.764 63.2462 136.166 51.8614C124.567 40.4766 105.913 40.6904 94.5284 52.289C91.9628 54.908 89.9851 57.8478 88.542 61.1617C88.4351 61.3755 88.3816 61.5358 88.2747 61.7496C85.2281 70.1413 83.678 79.1743 83.1435 87.9401C82.8228 93.9265 82.7694 99.9128 83.1435 105.846C83.1435 106.273 83.197 106.648 83.2504 107.075C83.3039 107.556 83.3039 108.037 83.3573 108.572C83.3573 108.625 83.3573 108.625 83.3573 108.679C83.4642 109.694 83.5177 110.71 83.6246 111.725C85.1746 127.76 88.6489 139.733 88.9161 140.695C89.7179 143.475 92.6576 145.078 95.4905 144.276C97.1474 143.849 98.3767 142.673 98.9647 141.176ZM93.5128 95.423C93.5662 85.5348 94.7956 75.1121 98.1095 65.7584C98.1095 65.7049 98.1095 65.7049 98.1629 65.6515C99.0716 63.46 100.408 61.4289 102.118 59.7185C109.387 52.289 121.36 52.1821 128.79 59.4513C136.219 66.7205 136.326 78.6932 129.057 86.1228C127.453 87.7797 125.529 89.116 123.445 90.0781C123.445 90.0781 123.445 90.0781 123.391 90.0781C113.984 93.7127 103.508 95.1558 93.5128 95.423Z" fill="#06C472"/>
<path d="M56.8459 62.1238C65.5048 61.3755 74.3241 59.7186 82.5553 56.565C82.7157 56.5116 82.9295 56.4581 83.0898 56.3512C86.5106 54.8546 89.5573 52.7166 92.2298 50.0441C103.615 38.4455 103.401 19.7915 91.8022 8.40667C80.2035 -2.97815 61.5495 -2.76435 50.1647 8.83427C47.5991 11.4533 45.6215 14.4465 44.1783 17.707C44.0714 17.9208 44.018 18.0811 43.9111 18.2949C40.0092 29.0383 38.6195 40.7439 38.5126 51.7545C33.4349 51.5942 28.6244 51.0597 24.4018 50.5252L32.9004 47.532C33.0073 45.2337 33.1142 43.0957 33.2745 41.2249C33.4349 39.6749 33.5952 38.1783 33.7556 36.6817L3.28913 47.3716C1.84598 47.9596 0.670083 49.2424 0.189034 50.8993C-0.345465 52.8235 0.295933 54.7477 1.57873 56.084C2.22013 56.6719 2.96843 57.153 3.87708 57.4202C4.83918 57.6875 16.8654 60.8945 32.9538 62.1238V62.0704C34.5039 62.2307 36.1074 62.3376 37.6574 62.3911C38.0316 62.3911 38.4057 62.4445 38.7799 62.4445C44.8197 62.7118 50.8061 62.6049 56.8459 62.1238ZM49.1491 51.9683C49.2026 42.0801 50.4319 31.6574 53.7458 22.2502C53.7458 22.2502 53.7458 22.1967 53.7993 22.1967C54.7079 20.0053 56.0442 17.9742 57.7546 16.2638C65.0238 8.83427 76.9965 8.72737 84.4261 15.9966C91.8556 23.2657 91.9625 35.2385 84.6933 42.6681C83.0898 44.325 81.1656 45.6612 79.0811 46.6233C79.0811 46.6233 79.0811 46.6233 79.0276 46.6233C69.6205 50.2579 59.1443 51.7011 49.1491 51.9683Z" fill="#06C472"/>
<path d="M77.6377 94.9421C67.0012 94.0869 58.2889 92.323 53.9594 91.3609C52.8904 87.0315 50.9663 78.3191 49.8973 67.7361C46.2627 67.843 42.6815 67.843 39.2073 67.6826C40.7573 83.9848 44.285 96.2783 44.5523 97.2404C45.0868 99.0043 46.4765 100.394 48.2403 100.875C49.2024 101.142 61.5493 104.403 77.905 105.632C77.6912 102.158 77.6377 98.6301 77.6377 94.9421Z" fill="#06C472"/>
</svg>
