<svg width="675" height="720" viewBox="0 0 675 720" fill="none" xmlns="http://www.w3.org/2000/svg">
<path opacity="0.2" d="M1939.67 170.93C1937.03 138.67 1932.86 106.08 1925.69 74.45C1921.72 56.93 1916.49 39.69 1910.12 22.89C1898.84 -6.87 1886.53 -36.79 1871.55 -64.96C1863.07 -80.9 1853.55 -96.3 1843.12 -111.04C1824.73 -137.02 1805.25 -162.55 1783.9 -186.19C1750.48 -223.2 1710.27 -254.84 1669.11 -282.64C1628.82 -309.85 1583.45 -329.4 1538 -346.11C1515.27 -353.24 1492.54 -354.25 1469.81 -349.16C1447.05 -348.13 1425.86 -341.36 1406.23 -328.87C1386.3 -318.12 1370.31 -303.44 1358.25 -284.83C1343.14 -268.31 1332.93 -248.93 1327.64 -226.68C1325.6 -211.53 1323.57 -196.37 1321.53 -181.22C1321.63 -150.35 1329.41 -121.58 1344.88 -94.91C1353.79 -83.3701 1362.71 -71.84 1371.62 -60.3C1392.55 -39.51 1417.17 -25.02 1445.44 -16.81C1464.89 -7.27002 1483.57 3.73999 1501.38 16.09C1518.72 30.98 1534.9 47.15 1549.79 64.5C1562.18 82.37 1573.23 101.12 1582.79 120.64C1589.13 138.43 1594.21 156.63 1597.92 175.15C1598.99 190.89 1599.02 206.65 1597.99 222.39C1594.49 239.66 1589.76 256.65 1583.89 273.27C1575.67 289.92 1566.3 305.96 1555.82 321.29C1544.8 333.94 1532.98 345.85 1520.37 356.92C1510.49 363.59 1500.27 369.73 1489.76 375.33C1495.2 325.97 1489.89 276.78 1481.46 227.98C1478.61 211.46 1473.89 195.45 1467.56 179.94C1459.58 160.41 1451.47 138.22 1440.54 119.34C1429.37 100.02 1414.5 82.34 1400.43 65.38C1395.57 59.52 1390.16 54.31 1384.29 49.48C1368.91 36.83 1350.19 20.17 1330.73 11.29C1312.17 2.82001 1291.26 -8.04999 1270.18 -11.67C1250.18 -15.1 1225.6 -20.35 1203.88 -18.28C1186.03 -16.58 1160.67 -15.2 1141.47 -8.22003C1122.91 -1.48004 1101.12 5.98999 1083.89 17.58C1044.64 44 1023.34 66.46 996.493 105.34C992.563 111.03 989.113 117.05 986.093 123.27C976.533 142.96 967.683 163.24 960.803 184.05C951.463 212.32 948.353 243.71 945.993 272.88C943.593 302.59 948.943 333.33 953.843 362.24C956.423 377.48 961.203 392.47 966.863 406.83C977.993 435.02 989.383 464.07 1005.27 490.14C1016.97 509.34 1030.55 527.56 1044.79 545.06C1039.52 549.91 1034.16 554.65 1028.69 559.28C1006.67 574.76 983.473 588.47 959.223 600.16C932.923 609.73 905.833 616.92 878.283 621.91C844.133 624.95 809.793 624.74 775.643 621.55C735.593 614.53 696.353 603.56 658.363 589.06C619.813 571.17 583.043 549.67 548.533 524.86C514.793 496.83 483.983 465.51 456.103 431.65C423.413 386.61 395.703 338.18 372.743 287.49C346.923 221.54 328.773 152.79 317.723 82.84C307.533 -9.06006 309.483 -101.95 320.263 -193.74C334.893 -290.64 358.773 -385.96 388.633 -479.26C397.903 -508.2 407.753 -536.95 418.063 -565.53C425.193 -588.26 426.203 -610.99 421.113 -633.72C420.083 -656.48 413.313 -677.67 400.823 -697.3C390.073 -717.23 375.393 -733.22 356.783 -745.28C340.263 -760.39 320.883 -770.6 298.633 -775.89C283.483 -777.93 268.323 -779.96 253.173 -782C222.303 -781.9 193.533 -774.12 166.863 -758.65C155.323 -749.74 143.793 -740.82 132.253 -731.91C111.063 -710.57 96.4032 -685.42 88.2732 -656.45C56.1032 -567.26 28.5132 -476.32 8.57325 -383.58C-4.37675 -323.34 -13.2768 -262.52 -20.8468 -201.38C-26.5368 -155.11 -30.0068 -108.52 -30.8168 -61.87C-31.5768 -17.82 -29.9968 26.29 -25.6268 70.13C-20.1868 124.7 -12.6468 179.48 -0.926756 233.11C7.73325 272.71 18.7832 311.79 32.3432 349.99C50.4432 400.99 71.6432 451.35 96.4132 499.49C114.383 534.43 134.803 568.11 157.703 600.04C189.023 643.7 222.543 686.52 260.533 724.65C297.463 761.71 339.183 794.39 381.873 824.45C413.523 846.73 447.113 866.26 482.143 882.72C529.073 904.78 577.753 925 627.893 938.7C678.243 952.45 730.773 959.94 782.673 964.25C820.653 967.4 858.973 966.77 896.783 961.99C948.963 955.4 1000.2 948.29 1049.76 930.18C1096.58 913.07 1143.3 892.74 1185.27 865.52C1211.68 848.4 1236.54 828.69 1261.02 809.02C1274.84 797.92 1288.07 786.09 1300.66 773.61C1317.22 757.19 1332.87 739.64 1347.65 721.36C1362.07 723.55 1376.59 725.28 1391.16 727.19C1407.76 729.36 1424.46 730.44 1441.2 730.04C1471.66 729.31 1502.37 724.74 1532.22 719.32C1549.42 716.2 1566.32 711.48 1582.7 705.42C1612.15 694.53 1641.97 682.35 1669.47 666.87C1696.97 651.39 1721.42 631.51 1746.2 612.07C1785.39 581.32 1815.85 542.81 1845.04 502.64C1874.32 462.35 1894.42 416.19 1911.72 369.72C1928.91 323.54 1936.23 273.52 1939.89 224.65C1941.23 206.77 1941.12 188.82 1939.65 170.96L1939.67 170.93Z" fill="#ADC7D4"/>
</svg>
