<svg width="393" height="1994" viewBox="0 0 393 1994" fill="none" xmlns="http://www.w3.org/2000/svg">
<path d="M513.626 1950C447.451 1892.2 379.576 1832.22 329.284 1761.9C317.191 1744.96 305.949 1727.47 296.008 1709.39C291.446 1701.06 287.164 1692.73 283.168 1684.13C281.112 1679.93 285.431 1689.27 282.14 1682.03C281.17 1679.82 280.147 1677.45 279.177 1675.24C277.078 1670.32 275.037 1665.29 273.107 1660.32C266.252 1642.29 260.471 1623.83 256.155 1605C255.274 1601 254.392 1597 253.622 1593.06C252.024 1585.29 254.271 1597.51 253.011 1589.62C252.607 1587.15 252.256 1584.84 251.852 1582.36C250.512 1572.74 249.51 1563.01 248.9 1553.35C247.786 1534.35 248.382 1516.96 250.398 1501.73C252.92 1483.36 257.12 1465.31 263.273 1447.85C261.319 1453.48 263.854 1446.73 264.092 1446.01C264.858 1444 265.735 1442.05 266.501 1440.04C267.964 1436.7 269.37 1433.47 271.056 1430.25C274.844 1422.45 279.078 1414.89 283.756 1407.57C284.856 1405.73 286.177 1404.02 287.335 1402.07C291.204 1396.02 284.232 1406.12 288.546 1400.3C291.189 1396.86 293.721 1393.37 296.476 1390C301.986 1383.25 307.882 1376.84 314.053 1370.72C316.623 1368.24 319.252 1365.65 321.933 1363.22C323.53 1361.79 325.127 1360.36 326.836 1358.99C332.14 1354.25 322.911 1361.89 328.602 1357.5C335.489 1352.18 342.37 1347.14 349.638 1342.44C356.223 1338.23 363.084 1334.31 370.104 1330.9C370.67 1330.63 377.177 1327.66 372.03 1329.92C373.67 1329.22 375.31 1328.52 376.95 1327.82C381.134 1326.04 385.542 1324.38 389.832 1322.94C397.118 1320.38 404.562 1318.32 412.165 1316.77C412.843 1316.56 419.711 1315.33 414.25 1316.3C416.277 1315.94 418.414 1315.64 420.552 1315.34C424.658 1314.8 428.876 1314.31 433.088 1314.11C440.84 1313.63 448.583 1313.71 456.261 1314.18C450.546 1313.74 457.548 1314.43 458.389 1314.44C460.517 1314.7 462.644 1314.97 464.714 1315.34C468.911 1315.98 473.102 1316.89 477.236 1317.92C481.37 1318.95 485.277 1320.14 489.347 1321.56C483.493 1319.49 490.125 1321.96 490.903 1322.37C492.518 1323.07 494.133 1323.77 495.747 1324.48C503.37 1328.04 510.358 1332.54 517.463 1336.82C521.016 1338.96 512.761 1333.09 518.072 1337.28C519.677 1338.54 521.392 1339.86 522.996 1341.12C526.258 1343.82 529.351 1346.57 532.385 1349.43C534.922 1351.89 537.458 1354.35 539.826 1356.86C541.256 1358.46 542.574 1360 544.004 1361.59C545.874 1363.7 545.874 1363.7 544.004 1361.59C544.883 1362.62 545.816 1363.81 546.637 1364.95C551.351 1371.1 555.668 1377.46 559.531 1384.15C561.327 1387.21 563.012 1390.22 564.581 1393.45C564.962 1394.07 567.877 1400.41 565.614 1395.26C566.801 1397.86 567.877 1400.41 568.953 1402.95C571.742 1410.08 574.192 1417.3 575.965 1424.75C576.49 1426.72 576.957 1428.8 577.371 1430.72C577.525 1431.51 578.525 1438.26 577.785 1432.64C578.386 1436.63 578.929 1440.74 579.249 1444.73C579.57 1448.72 579.721 1452.77 579.702 1456.86C579.73 1458.44 579.155 1468.47 579.712 1462.53C579.061 1470.55 577.516 1478.38 575.299 1486.14C574.702 1488.1 574.164 1489.94 573.567 1491.89C575.473 1485.81 573.451 1492.12 572.928 1493.12C571.581 1496.24 570.233 1499.36 568.722 1502.25C566.804 1505.92 564.721 1509.36 562.469 1512.86C558.885 1518.64 565.906 1508.99 561.433 1514.3C560 1515.96 558.62 1517.79 557.187 1519.45C554.263 1522.88 551.116 1526.19 547.806 1529.27C546.151 1530.82 544.495 1532.36 542.787 1533.73C546.833 1530.32 541.137 1534.99 540.682 1535.32C533.457 1540.75 525.686 1545.33 517.534 1549.28C521.327 1547.44 517.872 1549.18 517.137 1549.5C514.989 1550.36 512.953 1551.28 510.863 1552.03C506.625 1553.64 502.334 1555.08 497.879 1556.29C494.213 1557.35 490.493 1558.23 486.832 1559.01C486.493 1559.12 479.064 1560.33 484.016 1559.52C480.921 1560.03 477.884 1560.43 474.905 1560.71C466.528 1561.57 457.992 1561.93 449.525 1561.61C447.17 1561.51 444.926 1561.47 442.629 1561.26C447.001 1561.56 442.015 1561.08 440.893 1561.06C435.966 1560.47 430.986 1559.71 426.122 1558.72C406.274 1554.73 394.575 1550.03 375.967 1539.59C371.244 1536.99 366.697 1534.04 362.149 1531.1C360.153 1529.77 358.49 1528.62 354.339 1525.46C345.761 1518.85 337.533 1511.58 329.759 1503.98C314.38 1488.72 303.85 1475.28 291.845 1456.55C286.113 1447.74 280.836 1438.61 276.066 1429.32C274.169 1425.64 272.325 1422.13 270.597 1418.39C267.296 1411.71 268.053 1413.24 265.09 1406.45C257.823 1389.48 251.688 1371.97 246.569 1354.14C244.197 1345.68 242.053 1337.06 240.02 1328.49C237.684 1318.06 236.404 1311.3 235.192 1303.87C232.216 1285.46 230.25 1267.02 229.184 1248.47C228.118 1229.93 227.734 1210.9 228.187 1192.16C228.423 1182.22 228.882 1172.41 229.51 1162.54C229.808 1158.45 230.107 1154.36 230.295 1150.21C230.834 1142.13 229.875 1154.8 230.583 1146.67C230.867 1143.42 231.209 1140.06 231.492 1136.81C235.323 1098.88 241.509 1061.04 249.146 1023.68C266.249 940.847 290.895 859.833 311.407 777.792C332.462 693.627 349.283 607.817 350.471 520.775C351.541 440.187 335.805 361.153 301.61 288.193C269.47 219.423 219.862 157.81 154.42 118.37C93.6954 81.8204 22.3243 69.1636 -46.8526 83.9947C-168.026 110.031 -274.444 219.687 -288.878 343.991C-297.388 417.151 -274.507 498.219 -210.412 540.778C-180.361 560.732 -140.44 565.591 -106.962 551.364C-73.4846 537.137 -51.5682 510.636 -38.5301 478.646C-10.04 408.422 -21.1119 332.11 -47.6363 263.158C-76.6841 187.931 -124.323 119.842 -185.715 67.5065C-215.5 42.169 -248.379 20.313 -283.53 3.07625C-295.155 -2.57416 -311.049 1.29899 -316.714 13.4921C-322.378 25.6851 -318.722 40.6249 -306.318 46.682C-288.187 55.5909 -270.748 65.5539 -254.007 76.852C-247.41 81.2908 -243.423 84.2241 -234.956 90.773C-226.988 96.9202 -219.193 103.401 -211.796 110.099C-181.755 136.845 -159.934 161.985 -138.357 194.363C-127.651 210.438 -117.854 227.17 -109.301 244.386C-102.046 258.941 -94.948 275.962 -88.6058 294.43C-82.2635 312.898 -77.5614 332.066 -73.3671 351.394C-72.4858 355.395 -74.1065 345.767 -73.2711 352.293C-72.9732 354.432 -72.6171 356.459 -72.4305 358.539C-71.946 362.758 -71.4614 366.976 -71.088 371.137C-70.4575 379.68 -70.277 388.272 -70.5461 396.912C-70.6347 398.706 -70.7234 400.501 -70.8121 402.295C-70.8907 403.529 -71.2577 408.294 -70.8325 403.418C-71.2475 407.733 -71.6627 412.048 -72.3 416.246C-73.4635 424.702 -75.1298 433.036 -77.4684 441.303C-78.3709 444.655 -79.4958 447.891 -80.4565 451.354C-82.484 457.942 -78.4067 446.619 -80.99 452.916C-81.6978 454.812 -82.5165 456.65 -83.2824 458.657C-86.389 465.956 -90.1096 473.075 -94.3279 479.793C-94.9092 480.905 -98.9276 485.886 -94.8511 480.794C-96.0566 482.288 -97.1511 483.84 -98.3566 485.335C-100.308 487.714 -102.428 490.147 -104.713 492.351C-105.971 493.676 -107.452 494.885 -108.71 496.21C-113.11 500.567 -104.394 493.368 -109.509 496.926C-112.577 499.005 -115.592 501.253 -118.824 503.104C-120.469 504.086 -122.167 504.898 -123.754 505.768C-118.316 502.945 -123.754 505.768 -124.939 506.14C-127.934 507.265 -130.981 508.222 -134.082 509.009C-134.928 509.275 -141.347 510.452 -135.606 509.487C-137.632 509.844 -139.77 510.143 -141.849 510.331C-146.178 510.76 -150.555 510.739 -154.815 510.495C-149.21 510.875 -156.101 510.248 -156.884 510.121C-158.954 509.748 -161.023 509.375 -163.034 508.89C-165.046 508.406 -166.999 507.809 -169.063 507.155C-173.584 505.784 -169.619 506.865 -168.73 507.33C-172.573 505.746 -176.358 504.052 -180.079 501.965C-181.969 500.977 -183.743 499.767 -185.464 498.726C-187.846 497.056 -187.793 497.226 -185.241 498.843C-186.072 498.267 -186.957 497.521 -187.788 496.945C-194.428 491.776 -200.269 485.891 -206.047 479.614C-206.598 479.043 -208.955 475.97 -206.269 479.498C-207.641 477.79 -209.066 475.912 -210.38 474.092C-213.5 469.771 -216.392 465.285 -219.116 460.747C-221.076 457.456 -222.978 454.055 -224.711 450.6C-224.875 450.373 -228.061 443.468 -226.01 447.939C-227.038 445.844 -227.896 443.695 -228.755 441.547C-232.19 432.954 -235.06 424.091 -237.199 415.184C-237.719 412.929 -238.239 410.675 -238.648 408.478C-238.802 407.69 -239.35 403.863 -238.807 407.97C-239.403 403.693 -239.999 399.417 -240.314 395.145C-241.071 387.385 -241.267 379.635 -241.124 371.779C-241.116 368.243 -240.828 364.712 -240.65 361.123C-240.625 359.72 -240.152 355.293 -240.587 360.731C-240.44 358.825 -240.293 356.919 -239.977 354.96C-239.109 347.341 -237.792 339.674 -236.252 332.123C-234.78 325.245 -233.028 318.371 -230.943 311.672C-229.866 307.987 -228.566 304.417 -227.32 300.678C-229.454 306.927 -227.32 300.678 -226.797 299.677C-226.147 297.892 -225.328 296.054 -224.678 294.27C-219.042 280.504 -212.182 267.378 -204.433 254.717C-202.408 251.384 -200.273 248.11 -198.137 244.836C-197.043 243.284 -195.89 241.62 -194.796 240.068C-198.597 245.446 -194.796 240.068 -194.05 239.183C-189.392 232.978 -184.454 226.779 -179.41 220.918C-169.554 209.641 -158.866 198.94 -147.522 189.149C-147.522 189.149 -142.508 184.971 -145.47 187.389C-148.431 189.806 -143.476 185.74 -143.365 185.798C-140.291 183.439 -137.16 180.968 -134.087 178.609C-127.83 173.948 -121.298 169.573 -114.771 165.478C-108.698 161.712 -102.572 158.116 -96.1715 154.805C-92.6589 152.959 -89.2625 151.335 -85.808 149.6C-84.8453 149.111 -81.5652 147.71 -86.3159 149.759C-83.9405 148.735 -81.5653 147.71 -79.1899 146.685C-65.5619 140.92 -51.3933 136.287 -37.0226 132.892C-33.3029 132.004 -29.5304 131.284 -25.6996 130.454C-19.3924 129.218 -30.7051 131.095 -24.2918 130.198C-23.0536 129.996 -21.8154 129.793 -20.4661 129.649C-12.8147 128.549 -5.22667 127.841 2.46755 127.472C10.1618 127.103 17.232 127.115 24.6887 127.472C26.3134 127.613 27.8852 127.584 29.51 127.725C35.9559 128.12 24.3603 127.017 30.8541 127.862C35.1092 128.386 39.253 128.852 43.45 129.487C51.7858 130.87 60.1696 132.702 68.379 134.868C72.2322 135.89 75.9165 136.966 79.7116 138.099C81.8871 138.811 84.1735 139.581 86.349 140.293C89.1916 141.354 89.3609 141.301 86.6826 140.468C88.1329 140.943 89.6367 141.587 91.0289 142.173C107.576 148.696 123.42 156.835 138.287 166.303C141.559 168.438 144.72 170.515 147.934 172.761C143.333 169.648 149.538 174.024 150.094 174.314C151.921 175.694 153.747 177.074 155.685 178.511C163.045 184.199 170.119 190.161 176.961 196.569C183.252 202.406 189.316 208.407 195.205 214.742C198.34 218.222 201.475 221.701 204.553 225.292C205.596 226.546 206.587 227.63 207.63 228.883C204.664 225.35 210.538 232.527 211.03 233.209C222.328 247.61 232.6 262.892 241.851 278.773C251.701 295.675 259.332 311.134 265.736 326.235C273.104 343.822 279.451 362.01 284.671 380.457C287.096 389.089 289.351 397.773 291.326 406.453C292.207 410.454 293.089 414.455 293.859 418.398C295.298 425.664 295.048 423.976 296.149 431.349C302.554 471.092 303.445 511.636 301.314 551.733C296.953 634.284 276.63 721.381 255.102 803.74C214.823 957.732 166.295 1114.78 182.729 1275.89C190.675 1354.39 214.37 1433.9 261.007 1498.49C310.217 1566.56 386.432 1618.42 473.48 1611.37C513.379 1608.15 551.243 1593.38 581.41 1566.8C607.473 1543.74 624.859 1510.2 628.46 1475.69C636.056 1403.47 599.19 1332.37 539.421 1292.64C479.651 1252.9 399.165 1260.12 337.448 1293.72C273.519 1328.58 226.877 1391.01 209.103 1461.31C190.174 1536.53 202.223 1617.75 232.024 1688.55C266.125 1769.82 322.395 1838.46 384.863 1899.57C415.736 1929.86 448.212 1958.45 480.916 1986.87C490.638 1995.35 506.953 1996.08 515.783 1985.69C524.614 1975.29 525.005 1959.92 514.621 1950.81L513.626 1950Z" fill="#ADC7D4" fill-opacity="0.2"/>
</svg>
