<svg width="1440" height="1506" viewBox="0 0 1440 1506" fill="none" xmlns="http://www.w3.org/2000/svg">
<path d="M1610.85 1457.48C1525.43 1436.9 1437.5 1415.18 1360.35 1376.15C1341.79 1366.73 1323.73 1356.44 1306.54 1345.02C1298.64 1339.75 1290.99 1334.35 1283.46 1328.58C1279.7 1325.82 1287.85 1332.09 1281.58 1327.2C1279.7 1325.69 1277.69 1324.06 1275.81 1322.55C1271.67 1319.17 1267.53 1315.65 1263.52 1312.14C1249.09 1299.33 1235.42 1285.65 1222.87 1270.97C1220.24 1267.83 1217.6 1264.69 1215.1 1261.55C1210.08 1255.4 1217.73 1265.19 1212.96 1258.79C1211.46 1256.79 1210.08 1254.9 1208.57 1252.89C1202.93 1244.99 1197.53 1236.83 1192.52 1228.54C1182.73 1212.23 1175.21 1196.54 1169.94 1182.1C1163.67 1164.66 1159.02 1146.71 1156.39 1128.39C1157.27 1134.28 1156.39 1127.13 1156.27 1126.38C1156.01 1124.24 1155.89 1122.11 1155.64 1119.98C1155.39 1116.34 1155.14 1112.82 1155.14 1109.18C1154.89 1100.52 1155.14 1091.86 1155.89 1083.2C1156.01 1081.07 1156.39 1078.93 1156.52 1076.67C1157.14 1069.52 1155.64 1081.69 1156.77 1074.54C1157.52 1070.27 1158.15 1066.01 1159.03 1061.74C1160.78 1053.2 1163.04 1044.79 1165.67 1036.51C1166.8 1033.12 1167.93 1029.61 1169.19 1026.22C1169.94 1024.21 1170.69 1022.2 1171.57 1020.19C1174.08 1013.54 1169.44 1024.59 1172.45 1018.06C1176.08 1010.15 1179.85 1002.5 1184.11 994.965C1188 988.187 1192.27 981.535 1196.91 975.259C1197.28 974.757 1201.67 969.109 1198.16 973.502C1199.29 972.122 1200.42 970.741 1201.55 969.36C1204.43 965.846 1207.57 962.331 1210.71 959.068C1215.97 953.42 1221.62 948.148 1227.64 943.253C1228.14 942.751 1233.66 938.484 1229.27 941.873C1230.9 940.618 1232.66 939.363 1234.41 938.107C1237.8 935.723 1241.31 933.338 1244.95 931.204C1251.6 927.188 1258.5 923.673 1265.52 920.536C1260.25 922.795 1266.78 920.159 1267.53 919.782C1269.54 919.029 1271.54 918.276 1273.55 917.649C1277.56 916.268 1281.7 915.138 1285.84 914.134C1289.98 913.13 1294 912.377 1298.26 911.75C1292.12 912.628 1299.14 911.75 1300.02 911.75C1301.77 911.624 1303.53 911.499 1305.29 911.373C1313.69 910.996 1321.97 911.75 1330.25 912.252C1334.39 912.503 1324.35 911.122 1331 912.377C1333.01 912.754 1335.14 913.13 1337.15 913.507C1341.29 914.385 1345.3 915.389 1349.31 916.519C1352.7 917.523 1356.09 918.527 1359.35 919.657C1361.36 920.41 1363.24 921.163 1365.25 921.916C1367.88 922.92 1367.88 922.92 1365.25 921.916C1366.5 922.418 1367.88 923.046 1369.13 923.673C1376.16 926.937 1382.93 930.577 1389.46 934.718C1392.47 936.601 1395.35 938.484 1398.24 940.618C1398.86 940.994 1404.38 945.261 1399.99 941.747C1402.25 943.504 1404.38 945.262 1406.51 947.019C1412.28 952.039 1417.8 957.311 1422.82 963.085C1424.2 964.591 1425.58 966.222 1426.84 967.728C1427.34 968.356 1431.35 973.879 1428.09 969.235C1430.47 972.498 1432.86 975.887 1434.99 979.276C1437.12 982.665 1439.13 986.179 1441.01 989.819C1441.76 991.199 1445.9 1000.36 1443.64 994.839C1446.78 1002.24 1449.04 1009.9 1450.67 1017.81C1451.05 1019.82 1451.42 1021.7 1451.8 1023.71C1450.67 1017.43 1451.8 1023.96 1451.8 1025.09C1452.05 1028.48 1452.3 1031.87 1452.3 1035.13C1452.3 1039.27 1452.05 1043.29 1451.67 1047.43C1451.17 1054.21 1452.93 1042.41 1451.42 1049.19C1450.92 1051.32 1450.54 1053.58 1450.04 1055.71C1449.04 1060.11 1447.78 1064.5 1446.28 1068.77C1445.53 1070.9 1444.77 1073.03 1443.9 1075.04C1445.9 1070.15 1443.02 1076.92 1442.77 1077.43C1438.88 1085.59 1434.11 1093.24 1428.72 1100.52C1431.23 1097.13 1428.97 1100.27 1428.47 1100.9C1426.96 1102.66 1425.58 1104.41 1424.08 1106.04C1421.07 1109.43 1417.93 1112.7 1414.54 1115.83C1411.78 1118.47 1408.9 1120.98 1406.01 1123.36C1405.76 1123.62 1399.74 1128.13 1403.76 1125.12C1401.25 1127 1398.74 1128.76 1396.23 1130.39C1389.2 1135.04 1381.8 1139.3 1374.15 1142.94C1372.02 1143.95 1370.01 1144.95 1367.88 1145.83C1371.89 1144.07 1367.25 1145.96 1366.25 1146.46C1361.61 1148.22 1356.84 1149.85 1352.07 1151.23C1332.63 1156.88 1320.09 1158.13 1298.76 1157.5C1293.37 1157.38 1287.98 1156.88 1282.58 1156.37C1280.2 1156.12 1278.19 1155.87 1273.05 1154.99C1262.39 1153.11 1251.72 1150.48 1241.31 1147.34C1220.62 1140.94 1205.06 1133.91 1185.74 1122.86C1176.59 1117.72 1167.68 1112.07 1159.15 1106.04C1155.76 1103.66 1152.5 1101.4 1149.24 1098.89C1143.22 1094.5 1144.6 1095.5 1138.83 1090.86C1124.53 1079.18 1110.98 1066.51 1098.19 1053.08C1092.17 1046.68 1086.27 1040.02 1080.5 1033.37C1073.6 1025.21 1069.34 1019.82 1064.82 1013.79C1053.66 998.856 1043.37 983.418 1033.84 967.477C1024.3 951.537 1015.15 934.844 1006.87 918.025C1002.48 909.114 998.338 900.202 994.324 891.165C992.694 887.4 991.063 883.635 989.307 879.869C986.046 872.464 991.063 884.137 987.927 876.606C986.673 873.594 985.418 870.456 984.164 867.443C969.989 832.049 957.947 795.65 947.411 759C924.204 677.668 908.524 594.453 888.705 512.241C868.384 427.897 843.548 344.054 804.285 266.361C767.908 194.442 717.357 131.686 653.258 82.8614C592.922 36.7981 520.418 5.16892 444.152 0.524884C373.404 -3.74257 304.288 18.0967 249.848 63.2814C154.515 142.48 110.987 288.954 155.769 405.807C182.111 474.588 239.938 535.838 316.455 543.871C352.331 547.636 389.962 533.453 413.043 505.338C436.124 477.223 443.274 443.586 440.012 409.195C432.737 333.762 387.579 271.256 332.135 222.432C271.549 169.214 197.791 130.933 119.141 112.985C81.0078 104.324 41.7454 100.182 2.60864 101.186C-10.3115 101.563 -22.6042 112.357 -21.977 125.787C-21.3499 139.217 -11.1896 150.764 2.60865 150.387C22.8042 149.885 42.8744 150.638 62.9446 152.897C70.8472 153.776 75.7391 154.529 86.276 156.412C96.1857 158.169 106.095 160.303 115.754 162.813C154.765 172.603 185.749 184.778 219.868 203.479C236.802 212.767 253.235 223.06 268.789 234.356C281.96 243.895 296.135 255.693 310.309 269.123C324.484 282.553 337.529 297.363 350.198 312.55C352.833 315.688 346.937 307.906 350.7 313.303C351.955 315.06 353.209 316.692 354.338 318.449C356.721 321.964 359.105 325.478 361.363 328.992C365.878 336.272 370.018 343.803 373.781 351.585C374.534 353.217 375.286 354.848 376.039 356.48C376.54 357.609 378.422 362.002 376.541 357.484C378.171 361.5 379.802 365.517 381.182 369.533C384.067 377.566 386.45 385.724 388.206 394.134C388.959 397.522 389.461 400.911 390.213 404.426C391.468 411.203 389.837 399.28 390.464 406.057C390.715 408.066 390.841 410.074 391.091 412.208C391.719 420.115 391.719 428.148 391.091 436.055C391.091 437.31 389.837 443.586 391.091 437.185C390.715 439.068 390.464 440.95 390.088 442.833C389.46 445.845 388.708 448.983 387.704 451.995C387.203 453.753 386.45 455.51 385.948 457.267C384.067 463.166 388.457 452.748 385.572 458.271C383.816 461.534 382.185 464.923 380.178 468.061C379.175 469.693 378.046 471.199 377.042 472.705C380.555 467.684 377.042 472.705 376.164 473.584C374.032 475.968 371.774 478.228 369.39 480.361C368.763 480.989 363.62 485.005 368.262 481.491C366.631 482.746 364.875 484.001 363.119 485.131C359.481 487.515 355.592 489.524 351.704 491.281C356.847 489.022 350.449 491.657 349.697 491.908C347.69 492.536 345.683 493.164 343.676 493.666C341.669 494.168 339.661 494.544 337.529 494.921C332.888 495.799 336.902 494.921 337.905 494.921C333.766 495.297 329.626 495.548 325.361 495.423C323.229 495.423 321.096 495.172 319.09 495.046C316.204 494.67 316.33 494.795 319.341 495.046C318.337 494.921 317.208 494.67 316.205 494.544C307.926 493.038 300.023 490.528 291.995 487.641C291.242 487.39 287.73 485.758 291.744 487.641C289.737 486.762 287.605 485.758 285.598 484.754C280.831 482.369 276.19 479.734 271.674 476.972C268.413 474.964 265.151 472.831 262.015 470.571C261.764 470.446 255.743 465.802 259.632 468.814C257.75 467.433 255.994 465.927 254.238 464.421C247.214 458.396 240.565 451.87 234.544 444.967C233.039 443.209 231.534 441.452 230.154 439.695C229.652 439.067 227.394 435.93 229.777 439.318C227.269 435.804 224.76 432.29 222.502 428.65C218.237 422.123 214.474 415.345 210.962 408.317C209.331 405.179 207.951 401.916 206.446 398.652C205.819 397.397 204.188 393.255 206.321 398.276C205.568 396.519 204.816 394.761 204.188 392.879C201.429 385.724 199.045 378.319 196.913 370.914C195.031 364.136 193.4 357.233 192.146 350.33C191.393 346.564 190.892 342.799 190.265 338.908C191.268 345.435 190.265 338.908 190.265 337.778C190.014 335.896 189.888 333.888 189.637 332.005C188.258 317.194 188.258 302.384 189.261 287.573C189.512 283.682 189.888 279.791 190.265 275.901C190.515 274.018 190.766 272.01 191.017 270.127C190.139 276.654 191.017 270.127 191.268 268.997C192.523 261.341 194.028 253.559 195.784 246.028C199.296 231.469 203.812 217.035 209.331 203.103C209.331 203.103 211.84 197.078 210.335 200.593C208.829 204.107 211.338 198.208 211.464 198.208C213.094 194.693 214.725 191.054 216.356 187.539C219.743 180.511 223.506 173.608 227.394 166.955C231.032 160.805 234.795 154.781 238.935 148.881C241.193 145.618 243.45 142.606 245.708 139.468C246.336 138.589 248.594 135.828 245.332 139.844C246.963 137.836 248.593 135.828 250.224 133.82C259.632 122.398 270.043 111.729 281.207 102.065C284.092 99.5547 287.103 97.1699 290.113 94.6597C295.131 90.6433 285.974 97.5464 291.243 93.781C292.246 93.0279 293.25 92.2749 294.379 91.5218C300.651 87.0034 307.048 82.8614 313.696 78.9706C320.344 75.0797 326.616 71.8162 333.39 68.6783C334.895 68.0508 336.275 67.2977 337.78 66.6702C343.676 64.0344 332.888 68.4276 339.035 66.1683C343.049 64.6622 346.937 63.1559 350.951 61.7753C358.979 59.1395 367.258 56.8801 375.537 54.9974C379.425 54.1189 383.189 53.3657 387.077 52.6127C389.335 52.2361 391.718 51.8597 393.976 51.4831C396.987 51.1066 397.112 50.9811 394.353 51.4831C395.858 51.2322 397.489 51.1064 398.994 50.9809C416.681 49.0983 434.493 48.9731 452.054 50.4792C455.943 50.8558 459.706 51.2319 463.595 51.734C458.075 51.1064 465.602 52.1106 466.229 52.1106C468.487 52.4872 470.745 52.8639 473.128 53.2405C482.285 54.8722 491.317 56.8802 500.348 59.3905C508.627 61.6498 516.781 64.1598 524.934 67.0466C529.324 68.6783 533.715 70.3103 538.105 72.0675C539.61 72.695 540.99 73.1969 542.496 73.8244C538.231 72.0672 546.76 75.707 547.513 76.0836C564.196 83.6144 580.378 92.4005 595.932 102.191C612.49 112.608 626.414 122.775 639.083 133.192C653.759 145.367 667.808 158.546 680.979 172.478C687.126 179.005 693.147 185.657 698.917 192.434C701.551 195.572 704.186 198.71 706.694 201.848C711.336 207.621 710.332 206.241 714.722 212.265C738.806 244.522 758.375 280.042 775.058 316.567C809.428 391.749 831.756 478.353 850.823 561.317C886.447 716.451 916.176 878.112 1005.36 1013.29C1048.76 1079.18 1106.59 1138.68 1177.84 1174.32C1252.98 1211.85 1344.55 1222.52 1418.43 1175.95C1452.3 1154.62 1479.02 1123.99 1493.44 1086.46C1505.86 1053.96 1505.74 1016.18 1492.94 983.92C1466.22 916.394 1400.62 870.456 1329.24 862.925C1257.87 855.394 1189.88 899.073 1150.75 957.436C1110.23 1017.93 1097.81 1094.87 1114.62 1165.41C1132.68 1240.84 1180.98 1307.24 1240.18 1356.19C1308.05 1412.42 1389.71 1447.19 1473.37 1472.42C1514.77 1484.97 1556.79 1495.26 1598.94 1505.3C1611.48 1508.31 1626.28 1501.41 1629.29 1488.11C1632.3 1474.8 1625.53 1460.99 1612.11 1457.73L1610.85 1457.48Z" fill="#ADC7D4" fill-opacity="0.2"/>
</svg>
